<?xml version="1.0" encoding="utf-8"?>
<!-- Generator: Adobe Illustrator 27.4.1, SVG Export Plug-In . SVG Version: 6.00 Build 0)  -->
<svg version="1.1" id="Vrstva_1" xmlns="http://www.w3.org/2000/svg" xmlns:xlink="http://www.w3.org/1999/xlink" x="0px" y="0px" viewbox="0 0 561.2 79.4" style="enable-background:new 0 0 561.2 79.4;" xml:space="preserve" width="561.2" height="79.4">
<style type="text/css">
	.st0{fill:#FFFFFF;}
	.st1{fill:#164194;}
	.st2{fill:#FAEA27;}
	.st3{fill:#034EA2;}
	.st4{fill:#428E9B;}
	.st5{fill:#878787;}
</style>
<g id="Layer_1-2">
	<rect class="st0" width="116.9" height="79.4"></rect>
	<rect x="2.2" y="2.2" class="st1" width="112.4" height="74.9"></rect>
	<polyline class="st2" points="56,18.5 58.4,16.8 60.8,18.5 59.9,15.7 62.3,14 59.3,14 58.4,11.1 57.5,14 54.5,14 57,15.7 56,18.5 	
		"></polyline>
	<polyline class="st2" points="43.8,21.8 46.2,20.1 48.5,21.8 47.6,19 50,17.3 47,17.3 46.2,14.4 45.2,17.3 42.3,17.3 44.7,19 
		43.8,21.8 	"></polyline>
	<polyline class="st2" points="37.2,23.4 36.3,26.3 33.3,26.3 35.7,28 34.8,30.8 37.2,29.1 39.5,30.8 38.6,28 41,26.3 38.1,26.3 
		37.2,23.4 	"></polyline>
	<polyline class="st2" points="33.9,41.3 36.2,43.1 35.3,40.3 37.8,38.5 34.8,38.5 33.9,35.7 33,38.5 30,38.5 32.4,40.3 31.5,43.1 
		33.9,41.3 	"></polyline>
	<polyline class="st2" points="38.1,50.8 37.2,48 36.3,50.8 33.3,50.8 35.7,52.5 34.8,55.3 37.2,53.6 39.5,55.3 38.6,52.5 41,50.8 
		38.1,50.8 	"></polyline>
	<polyline class="st2" points="47.1,59.8 46.2,57 45.3,59.8 42.3,59.8 44.7,61.5 43.8,64.3 46.2,62.6 48.5,64.3 47.6,61.5 50,59.8 
		47.1,59.8 	"></polyline>
	<polyline class="st2" points="59.3,63.1 58.4,60.2 57.5,63.1 54.5,63.1 57,64.8 56,67.6 58.4,65.9 60.8,67.6 59.9,64.8 62.3,63.1 
		59.3,63.1 	"></polyline>
	<polyline class="st2" points="71.6,59.8 70.7,57 69.8,59.8 66.8,59.8 69.2,61.5 68.3,64.3 70.7,62.6 73.1,64.3 72.2,61.5 
		74.6,59.8 71.6,59.8 	"></polyline>
	<polyline class="st2" points="80.6,50.8 79.7,48 78.8,50.8 75.8,50.8 78.2,52.5 77.3,55.3 79.7,53.6 82.1,55.3 81.1,52.5 
		83.6,50.8 80.6,50.8 	"></polyline>
	<polyline class="st2" points="86.8,38.5 83.8,38.5 82.9,35.7 82,38.5 79.1,38.5 81.5,40.2 80.6,43 82.9,41.3 85.3,43 84.4,40.2 
		86.8,38.5 	"></polyline>
	<polyline class="st2" points="77.3,30.8 79.7,29 82.1,30.8 81.1,28 83.6,26.2 80.6,26.2 79.7,23.4 78.8,26.2 75.8,26.2 78.2,28 
		77.3,30.8 	"></polyline>
	<polyline class="st2" points="70.7,14.4 69.8,17.3 66.8,17.3 69.2,19 68.3,21.8 70.7,20.1 73.1,21.8 72.2,19 74.6,17.3 71.6,17.3 
		70.7,14.4 	"></polyline>
	<path class="st3" d="M139.3,31.6c-1.2,0-2.4-0.2-3.6-0.6c-1-0.4-2-1-2.7-1.8c-0.8-0.8-1.3-1.8-1.7-2.9c-0.4-1.3-0.6-2.6-0.6-4
		c0-1.4,0.2-2.7,0.7-4c0.4-1.1,1.1-2.1,1.9-2.9c0.8-0.8,1.7-1.4,2.7-1.8c1.1-0.4,2.3-0.6,3.4-0.6c0.7,0,1.3,0,2,0.2
		c0.5,0.1,1.1,0.2,1.6,0.4c0.4,0.1,0.8,0.3,1.1,0.4l0.6,0.3l-1,2.6c-0.6-0.3-1.1-0.6-1.8-0.7c-0.8-0.2-1.6-0.4-2.5-0.4
		c-0.7,0-1.5,0.1-2.2,0.4c-0.7,0.3-1.3,0.7-1.7,1.2c-0.5,0.6-0.9,1.3-1.1,2c-0.3,0.9-0.4,1.9-0.4,2.8c0,0.9,0.1,1.8,0.3,2.6
		c0.2,0.7,0.5,1.4,1,2c0.5,0.6,1,1,1.7,1.3c0.8,0.3,1.6,0.5,2.5,0.5c0.9,0,1.9-0.1,2.8-0.4c0.6-0.2,1.1-0.4,1.7-0.6l1,2.7
		c-0.3,0.2-0.5,0.3-0.8,0.4c-0.9,0.4-1.9,0.6-2.9,0.7C140.6,31.6,140,31.6,139.3,31.6z"></path>
	<path class="st3" d="M159.5,24.5c0,1-0.1,2-0.5,2.9c-0.3,0.8-0.7,1.6-1.3,2.2c-0.6,0.6-1.2,1.1-2,1.4c-0.8,0.4-1.7,0.5-2.6,0.5
		c-0.9,0-1.8-0.2-2.6-0.5c-0.8-0.3-1.4-0.8-2-1.4c-0.6-0.7-1-1.4-1.3-2.2c-0.6-1.9-0.6-3.9,0-5.8c0.3-0.8,0.8-1.6,1.3-2.2
		c0.6-0.6,1.2-1,2-1.4c0.8-0.3,1.7-0.5,2.6-0.5c0.9,0,1.8,0.2,2.6,0.5c0.8,0.3,1.4,0.8,2,1.4c0.6,0.6,1,1.4,1.3,2.2
		C159.3,22.5,159.5,23.5,159.5,24.5z M156.3,24.5c0.1-1.1-0.2-2.2-0.9-3.2c-1.1-1.3-3-1.6-4.3-0.5c-0.2,0.1-0.4,0.3-0.5,0.5
		c-0.6,0.9-0.9,2.1-0.9,3.2c-0.1,1.1,0.2,2.3,0.9,3.2c1,1.3,2.9,1.6,4.2,0.6c0.2-0.2,0.4-0.4,0.6-0.6
		C156.1,26.8,156.4,25.6,156.3,24.5z"></path>
	<path class="st3" d="M161.3,22.5h6.9v2.9h-6.9V22.5z"></path>
	<path class="st3" d="M176.3,11.3c0.6,0,1.3,0.1,1.9,0.2c0.4,0.1,0.8,0.2,1.2,0.4l-0.6,2.6c-0.3-0.1-0.7-0.3-1-0.3
		c-0.4-0.1-0.8-0.1-1.2-0.1c-0.4,0-0.9,0.1-1.3,0.2c-0.3,0.1-0.6,0.3-0.8,0.6c-0.2,0.3-0.4,0.6-0.4,0.9c-0.1,0.4-0.1,0.8-0.1,1.2
		v0.9h4.9v2.6H174v10.9h-3.1V16.8c-0.1-1.5,0.4-2.9,1.4-4.1C173.3,11.7,174.8,11.2,176.3,11.3z"></path>
	<path class="st3" d="M192.2,30.8c-0.6,0.1-1.4,0.3-2.3,0.5c-1,0.2-2.1,0.3-3.2,0.2c-0.9,0-1.9-0.1-2.7-0.5
		c-0.7-0.3-1.3-0.7-1.8-1.3c-0.5-0.6-0.8-1.3-0.9-2c-0.2-0.8-0.3-1.7-0.3-2.5v-7.5h3.1v7.1c-0.1,1.1,0.1,2.1,0.6,3.1
		c0.5,0.7,1.4,1,2.2,0.9c0.4,0,0.8,0,1.2,0c0.3,0,0.6-0.1,0.9-0.1V17.8h3.1V30.8z"></path>
	<path class="st3" d="M196.2,18.2c0.8-0.2,1.6-0.4,2.4-0.5c1.1-0.2,2.1-0.2,3.2-0.2c0.9,0,1.9,0.1,2.8,0.5c0.7,0.3,1.3,0.7,1.8,1.3
		c0.5,0.6,0.8,1.3,0.9,2c0.2,0.8,0.3,1.7,0.3,2.5v7.6h-3.1v-7.1c0-0.6,0-1.2-0.1-1.9c-0.1-0.4-0.2-0.9-0.5-1.2
		c-0.2-0.3-0.5-0.6-0.9-0.7c-0.4-0.2-0.9-0.2-1.4-0.2c-0.4,0-0.8,0-1.2,0.1l-0.9,0.1v10.9h-3.1L196.2,18.2z"></path>
	<path class="st3" d="M222.6,30.8c-0.8,0.2-1.5,0.4-2.3,0.5c-1,0.2-2,0.2-2.9,0.2c-1,0-1.9-0.1-2.9-0.5c-0.8-0.3-1.6-0.8-2.2-1.4
		c-0.6-0.6-1-1.4-1.3-2.2c-0.3-0.9-0.5-1.9-0.5-2.9c0-1,0.1-2,0.4-2.9c0.2-0.8,0.6-1.6,1.2-2.2c0.5-0.6,1.1-1.1,1.8-1.4
		c0.8-0.4,1.7-0.5,2.6-0.5c0.6,0,1.2,0.1,1.7,0.2c0.4,0.1,0.9,0.3,1.3,0.5v-6.5l3.1-0.5L222.6,30.8z M213.7,24.5
		c-0.1,1.2,0.3,2.3,1,3.2c0.7,0.8,1.7,1.2,2.7,1.2c0.4,0,0.9,0,1.3-0.1c0.3,0,0.6-0.1,0.9-0.1V21c-0.3-0.2-0.7-0.4-1.1-0.5
		c-0.5-0.2-1-0.2-1.4-0.2c-1-0.1-1.9,0.4-2.5,1.2C213.9,22.3,213.6,23.4,213.7,24.5z"></path>
	<path class="st3" d="M225.8,24.6c0-1.1,0.2-2.1,0.5-3.1c0.3-0.8,0.8-1.6,1.4-2.2c0.6-0.6,1.2-1,2-1.3c0.7-0.3,1.5-0.4,2.3-0.5
		c1.6-0.1,3.2,0.5,4.3,1.7c1.1,1.5,1.7,3.3,1.6,5.2c0,0.2,0,0.4,0,0.6s0,0.4,0,0.6h-8.9c0,1,0.4,1.9,1.1,2.5c0.9,0.7,1.9,1,3,0.9
		c0.7,0,1.4-0.1,2.1-0.2c0.5-0.1,1-0.2,1.5-0.4l0.4,2.5c-0.2,0.1-0.5,0.2-0.7,0.3c-0.3,0.1-0.7,0.2-1,0.2c-0.4,0.1-0.8,0.1-1.2,0.2
		c-0.5,0-0.9,0.1-1.4,0.1c-1.1,0-2.1-0.2-3.1-0.5c-0.8-0.3-1.6-0.8-2.2-1.5c-0.6-0.6-1-1.4-1.3-2.2C226,26.5,225.8,25.5,225.8,24.6z
		 M234.8,23.2c0-0.4,0-0.8-0.1-1.2c-0.1-0.4-0.3-0.7-0.5-1c-0.2-0.3-0.5-0.5-0.9-0.7c-0.4-0.2-0.8-0.3-1.2-0.2
		c-0.4,0-0.9,0.1-1.3,0.3c-0.4,0.2-0.7,0.4-0.9,0.7c-0.2,0.3-0.4,0.6-0.6,1c-0.1,0.4-0.2,0.8-0.3,1.2L234.8,23.2z"></path>
	<path class="st3" d="M252.7,30.8c-0.8,0.2-1.5,0.4-2.3,0.5c-1,0.2-2,0.2-3,0.2c-1,0-1.9-0.1-2.9-0.5c-0.8-0.3-1.6-0.8-2.2-1.4
		c-0.6-0.6-1-1.4-1.3-2.2c-0.3-0.9-0.5-1.9-0.5-2.9c0-1,0.1-2,0.4-2.9c0.2-0.8,0.6-1.6,1.2-2.2c0.5-0.6,1.2-1.1,1.9-1.4
		c0.8-0.4,1.7-0.5,2.5-0.5c0.6,0,1.2,0.1,1.7,0.2c0.4,0.1,0.9,0.3,1.3,0.5v-6.5l3.1-0.5L252.7,30.8z M243.7,24.5
		c-0.1,1.2,0.3,2.3,1,3.2c0.7,0.8,1.7,1.2,2.7,1.2c0.4,0,0.9,0,1.3-0.1c0.3,0,0.6-0.1,0.9-0.1V21c-0.3-0.2-0.7-0.4-1.1-0.5
		c-0.5-0.2-1-0.2-1.4-0.2c-1-0.1-1.9,0.4-2.5,1.2C244,22.3,243.7,23.4,243.7,24.5L243.7,24.5z"></path>
	<path class="st3" d="M274.8,24.5c0,1-0.1,2-0.5,2.9c-0.3,0.8-0.8,1.6-1.4,2.2c-0.6,0.6-1.3,1.1-2.1,1.4c-0.9,0.3-1.9,0.5-2.9,0.5
		c-1,0-2-0.1-3-0.2c-0.8-0.1-1.6-0.3-2.3-0.5V11.8l3.1-0.5v7c0.4-0.2,0.9-0.4,1.3-0.5c0.6-0.2,1.2-0.2,1.7-0.2
		c0.9,0,1.7,0.2,2.5,0.5c0.7,0.3,1.4,0.8,1.9,1.4c0.5,0.7,0.9,1.4,1.1,2.2C274.7,22.6,274.8,23.6,274.8,24.5z M271.6,24.5
		c0.1-1.1-0.2-2.2-0.8-3.1c-0.6-0.8-1.5-1.2-2.5-1.2c-0.5,0-1,0.1-1.5,0.2c-0.4,0.1-0.8,0.3-1.1,0.5v7.8c0.3,0.1,0.6,0.1,0.9,0.1
		c0.4,0,0.9,0.1,1.3,0.1c1,0.1,2-0.4,2.7-1.2C271.3,26.8,271.7,25.6,271.6,24.5z"></path>
	<path class="st3" d="M288.7,17.8c-1.3,4.8-2.9,9.4-4.8,13.9c-0.3,0.7-0.7,1.4-1.1,2c-0.3,0.5-0.7,0.9-1.2,1.3
		c-0.4,0.4-1,0.6-1.5,0.8c-0.6,0.2-1.3,0.3-1.9,0.2c-0.5,0-1-0.1-1.4-0.2c-0.4-0.1-0.7-0.2-1.1-0.3l0.6-2.5c0.6,0.2,1.2,0.4,1.8,0.4
		c0.7,0,1.4-0.2,1.9-0.6c0.5-0.5,0.9-1.1,1.2-1.8c-1-1.9-1.9-4-2.8-6.2c-0.9-2.3-1.7-4.7-2.4-7.1h3.3c0.2,0.7,0.4,1.5,0.6,2.3
		s0.5,1.7,0.8,2.6s0.6,1.7,0.9,2.6s0.7,1.7,1,2.4c0.5-1.5,1.1-3.2,1.5-4.9s0.9-3.4,1.3-5L288.7,17.8z"></path>
	<path class="st3" d="M131.1,45.1l3.1-0.5v4.1h4.8v2.6h-4.8v5.5c-0.1,0.8,0.1,1.6,0.5,2.3c0.4,0.5,1.1,0.8,1.8,0.7
		c0.5,0,1-0.1,1.5-0.2c0.3-0.1,0.7-0.2,1-0.3l0.5,2.5c-0.5,0.2-0.9,0.3-1.4,0.5c-0.7,0.2-1.4,0.3-2.1,0.2c-0.8,0-1.6-0.1-2.4-0.4
		c-0.6-0.2-1.1-0.6-1.5-1.1c-0.4-0.5-0.7-1.1-0.8-1.8c-0.2-0.8-0.2-1.6-0.2-2.4V45.1z"></path>
	<path class="st3" d="M142,62.2V42.7l3.1-0.5v6.7c0.4-0.1,0.8-0.2,1.2-0.3c0.4-0.1,0.9-0.1,1.4-0.1c0.9,0,1.8,0.1,2.7,0.5
		c0.7,0.3,1.3,0.7,1.7,1.3c0.4,0.6,0.8,1.2,0.9,1.9c0.2,0.8,0.3,1.7,0.3,2.5v7.6h-3.1v-7.1c0-0.6,0-1.2-0.1-1.8
		c-0.1-0.4-0.2-0.9-0.5-1.2c-0.2-0.3-0.5-0.6-0.9-0.7c-0.4-0.2-0.9-0.2-1.3-0.2c-0.4,0-0.8,0-1.3,0.1c-0.4,0.1-0.8,0.2-0.9,0.2v10.7
		H142z"></path>
	<path class="st3" d="M156.2,55.5c0-1.1,0.2-2.1,0.5-3.1c0.3-0.8,0.8-1.6,1.4-2.2c0.6-0.6,1.2-1,2-1.3c0.7-0.3,1.5-0.4,2.3-0.5
		c1.6-0.1,3.2,0.5,4.3,1.7c1.1,1.5,1.7,3.3,1.6,5.2c0,0.2,0,0.4,0,0.6s0,0.4,0,0.6h-8.9c0,1,0.4,1.9,1.1,2.5c0.9,0.7,1.9,1,3,0.9
		c0.7,0,1.4-0.1,2.1-0.2c0.5-0.1,1-0.2,1.5-0.4l0.4,2.5c-0.2,0.1-0.5,0.2-0.7,0.3c-0.3,0.1-0.6,0.2-1,0.3s-0.8,0.1-1.2,0.2
		c-0.5,0-0.9,0.1-1.4,0.1c-1.1,0-2.1-0.2-3.1-0.5c-0.8-0.3-1.6-0.8-2.2-1.5c-0.6-0.6-1-1.4-1.3-2.2
		C156.4,57.4,156.3,56.4,156.2,55.5z M165.2,54.1c0-0.4-0.1-0.8-0.2-1.2c-0.1-0.4-0.3-0.7-0.5-1c-0.2-0.3-0.5-0.5-0.9-0.7
		c-0.8-0.3-1.7-0.3-2.5,0c-0.4,0.2-0.7,0.4-0.9,0.7c-0.2,0.3-0.4,0.6-0.6,1c-0.1,0.4-0.2,0.8-0.3,1.2L165.2,54.1z"></path>
	<path class="st3" d="M177.9,62.2V44.3h11.5v2.8h-8.2v4.4h7.3v2.7h-7.3v5.2h8.8v2.8H177.9z"></path>
	<path class="st3" d="M203.4,61.8c-0.6,0.1-1.4,0.3-2.3,0.5c-1,0.2-2.1,0.2-3.2,0.2c-0.9,0-1.9-0.1-2.7-0.5
		c-0.7-0.3-1.3-0.7-1.8-1.3c-0.5-0.6-0.8-1.3-0.9-2c-0.2-0.8-0.3-1.7-0.3-2.5v-7.5h3.1v7.1c-0.1,1.1,0.1,2.1,0.6,3.1
		c0.5,0.7,1.4,1,2.2,0.9c0.4,0,0.8,0,1.2,0c0.3,0,0.6-0.1,0.9-0.1V48.7h3.1L203.4,61.8z"></path>
	<path class="st3" d="M215,51.5c-0.4-0.1-0.7-0.2-1.1-0.3c-0.5-0.1-1-0.2-1.6-0.2c-0.4,0-0.7,0-1.1,0.1c-0.3,0-0.5,0.1-0.8,0.2v10.8
		h-3.1V49.3c0.7-0.3,1.5-0.5,2.2-0.6c1-0.2,2-0.3,3-0.3c0.2,0,0.4,0,0.7,0s0.6,0.1,0.8,0.1s0.5,0.1,0.8,0.2s0.5,0.1,0.6,0.2
		L215,51.5z"></path>
	<path class="st3" d="M229.9,55.4c0,1-0.1,2-0.5,2.9c-0.3,0.8-0.7,1.6-1.3,2.2c-0.6,0.6-1.2,1.1-2,1.5c-0.8,0.3-1.7,0.5-2.6,0.5
		c-0.9,0-1.8-0.2-2.6-0.5c-0.8-0.3-1.4-0.8-2-1.5c-0.6-0.6-1-1.4-1.3-2.2c-0.6-1.9-0.6-3.9,0-5.8c0.3-0.8,0.7-1.6,1.3-2.2
		c0.6-0.6,1.2-1.1,2-1.4c0.8-0.3,1.7-0.5,2.6-0.5c0.9,0,1.8,0.2,2.6,0.5c0.8,0.3,1.4,0.8,2,1.4c0.6,0.6,1,1.4,1.3,2.2
		C229.8,53.4,229.9,54.4,229.9,55.4z M226.7,55.4c0.1-1.1-0.2-2.2-0.9-3.2c-1-1.3-3-1.6-4.3-0.5c-0.2,0.2-0.4,0.3-0.5,0.5
		c-0.6,0.9-0.9,2.1-0.9,3.2c-0.1,1.1,0.2,2.3,0.9,3.2c1,1.3,2.9,1.6,4.2,0.6c0.2-0.2,0.4-0.4,0.6-0.6
		C226.5,57.7,226.8,56.5,226.7,55.4L226.7,55.4z"></path>
	<path class="st3" d="M245.3,55.4c0,1-0.1,1.9-0.4,2.8c-0.2,0.8-0.6,1.6-1.1,2.2c-0.5,0.6-1.1,1.1-1.9,1.4c-1.4,0.6-2.9,0.7-4.3,0.3
		c-0.5-0.1-0.9-0.3-1.3-0.5v5.2h-3.1V49.1c0.8-0.2,1.6-0.4,2.3-0.5c1-0.2,2-0.2,2.9-0.2c1,0,1.9,0.2,2.9,0.5
		c0.8,0.3,1.5,0.8,2.1,1.4c0.6,0.6,1.1,1.4,1.4,2.2C245.1,53.5,245.3,54.4,245.3,55.4z M242.1,55.5c0.1-1.2-0.3-2.3-0.9-3.2
		c-0.8-0.8-1.9-1.3-3-1.2c-0.3,0-0.6,0-0.9,0c-0.3,0-0.6,0.1-0.9,0.2V59c0.3,0.2,0.7,0.4,1.1,0.5c0.5,0.2,1,0.2,1.5,0.2
		c1,0.1,1.9-0.4,2.5-1.2C241.9,57.7,242.2,56.6,242.1,55.5z"></path>
	<path class="st3" d="M247.8,55.5c0-1.1,0.2-2.1,0.5-3.1c0.3-0.8,0.8-1.6,1.4-2.2c0.6-0.6,1.2-1,2-1.3c0.7-0.3,1.5-0.4,2.3-0.5
		c1.6-0.1,3.2,0.5,4.3,1.7c1.1,1.5,1.7,3.3,1.5,5.2c0,0.2,0,0.4,0,0.6s0,0.4,0,0.6H251c0,1,0.4,1.9,1.1,2.5c0.8,0.6,1.9,1,2.9,0.9
		c0.7,0,1.4-0.1,2.1-0.2c0.5-0.1,1-0.2,1.5-0.4l0.4,2.5c-0.2,0.1-0.5,0.2-0.7,0.3c-0.3,0.1-0.6,0.2-1,0.3s-0.8,0.1-1.2,0.2
		c-0.5,0-0.9,0.1-1.4,0.1c-1.1,0-2.1-0.2-3.1-0.5c-0.8-0.3-1.6-0.8-2.2-1.5c-0.6-0.6-1-1.4-1.3-2.2
		C247.9,57.4,247.7,56.4,247.8,55.5z M256.8,54.1c0-0.4-0.1-0.8-0.2-1.2c-0.1-0.4-0.3-0.7-0.5-1c-0.2-0.3-0.5-0.5-0.9-0.7
		c-0.8-0.3-1.7-0.3-2.5,0c-0.4,0.2-0.7,0.4-0.9,0.7c-0.2,0.3-0.4,0.6-0.6,1c-0.1,0.4-0.2,0.8-0.2,1.2L256.8,54.1z"></path>
	<path class="st3" d="M267.7,48.3c0.9,0,1.8,0.1,2.6,0.4c0.6,0.2,1.2,0.6,1.7,1.1c0.4,0.5,0.7,1.1,0.9,1.7c0.2,0.7,0.3,1.4,0.3,2.2
		v8.2c-0.5,0.1-1.2,0.2-2.2,0.4c-1.1,0.1-2.2,0.2-3.3,0.2c-0.7,0-1.5-0.1-2.2-0.2c-0.6-0.1-1.2-0.4-1.7-0.7
		c-0.5-0.4-0.8-0.8-1.1-1.3c-0.3-0.6-0.4-1.3-0.4-2c0-0.7,0.1-1.4,0.5-2c0.3-0.5,0.7-1,1.2-1.3c0.5-0.3,1.2-0.6,1.8-0.7
		c0.7-0.1,1.4-0.2,2.1-0.2c0.4,0,0.7,0,1.1,0.1c0.4,0,0.8,0.1,1.2,0.2v-0.5c0-0.3,0-0.7-0.1-1c-0.1-0.3-0.2-0.6-0.5-0.9
		c-0.2-0.3-0.5-0.5-0.9-0.6c-0.4-0.2-0.9-0.2-1.3-0.2c-0.7,0-1.3,0-2,0.2c-0.5,0.1-1,0.2-1.5,0.4l-0.4-2.5c0.6-0.2,1.1-0.3,1.7-0.4
		C266.1,48.4,266.9,48.4,267.7,48.3z M268,60c0.7,0,1.5,0,2.2-0.2v-3.5c-0.2-0.1-0.5-0.1-0.8-0.2c-0.4-0.1-0.7-0.1-1.1-0.1
		c-0.3,0-0.7,0-1,0.1c-0.3,0-0.7,0.1-1,0.3c-0.3,0.1-0.5,0.3-0.7,0.6c-0.2,0.3-0.3,0.6-0.2,0.9c-0.1,0.6,0.2,1.2,0.7,1.5
		C266.7,59.9,267.3,60,268,60z"></path>
	<path class="st3" d="M277,49.1c0.8-0.2,1.6-0.4,2.3-0.5c1.1-0.2,2.1-0.2,3.2-0.2c0.9,0,1.9,0.1,2.8,0.5c0.7,0.3,1.3,0.7,1.7,1.3
		c0.5,0.6,0.8,1.3,0.9,2c0.2,0.8,0.3,1.7,0.3,2.5v7.6h-3.1v-7.1c0-0.6,0-1.2-0.1-1.8c-0.1-0.4-0.2-0.9-0.4-1.2
		c-0.2-0.3-0.5-0.6-0.9-0.7c-0.4-0.2-0.9-0.2-1.4-0.2c-0.4,0-0.8,0-1.2,0.1l-1,0.1v10.9h-3V49.1z"></path>
	<path class="st3" d="M305.1,62.5c-1.1,0-2.1-0.2-3.1-0.5c-0.8-0.3-1.6-0.8-2.2-1.5c-0.6-0.6-1-1.4-1.3-2.2
		c-0.3-0.9-0.4-1.9-0.4-2.8V44.3h3.3v10.8c0,0.7,0.1,1.4,0.3,2.1c0.2,0.5,0.4,1,0.8,1.4c0.3,0.4,0.7,0.6,1.2,0.8
		c0.5,0.2,1,0.3,1.5,0.3c0.5,0,1.1-0.1,1.5-0.3c0.5-0.2,0.9-0.4,1.2-0.8c0.4-0.4,0.6-0.9,0.8-1.4c0.2-0.7,0.3-1.4,0.3-2.1V44.3h3.3
		v11.1c0,1-0.1,1.9-0.4,2.8c-0.3,0.8-0.7,1.6-1.3,2.2c-0.6,0.7-1.4,1.2-2.2,1.5C307.2,62.4,306.2,62.6,305.1,62.5z"></path>
	<path class="st3" d="M316.1,49.1c0.8-0.2,1.6-0.4,2.4-0.5c1.1-0.2,2.1-0.2,3.2-0.2c0.9,0,1.9,0.1,2.8,0.5c0.7,0.3,1.3,0.7,1.8,1.3
		c0.5,0.6,0.8,1.3,0.9,2c0.2,0.8,0.3,1.7,0.3,2.5v7.6h-3.1v-7.1c0-0.6,0-1.2-0.1-1.8c-0.1-0.4-0.2-0.9-0.5-1.2
		c-0.2-0.3-0.5-0.6-0.9-0.7c-0.4-0.2-0.9-0.2-1.4-0.2c-0.4,0-0.8,0-1.2,0.1l-1,0.1v10.9h-3.1V49.1z"></path>
	<path class="st3" d="M334.7,44.8c0,0.5-0.2,1-0.6,1.4c-0.4,0.3-0.8,0.5-1.3,0.5c-0.5,0-1-0.2-1.4-0.5c-0.4-0.4-0.6-0.9-0.6-1.4
		c0-0.5,0.2-1.1,0.6-1.4c0.4-0.3,0.9-0.5,1.4-0.5c0.5,0,1,0.2,1.3,0.5C334.5,43.7,334.7,44.2,334.7,44.8z M334.4,62.2h-3.1V48.7h3.1
		V62.2z"></path>
	<path class="st3" d="M350.5,55.4c0,1-0.1,2-0.5,2.9c-0.3,0.8-0.7,1.6-1.3,2.2c-0.6,0.6-1.3,1.1-2.1,1.4c-0.8,0.3-1.7,0.5-2.6,0.5
		c-0.9,0-1.8-0.2-2.6-0.5c-0.8-0.3-1.4-0.8-2-1.5c-0.6-0.6-1-1.4-1.3-2.2c-0.6-1.9-0.6-3.9,0-5.8c0.3-0.8,0.7-1.6,1.3-2.2
		c0.6-0.6,1.3-1.1,2-1.4c0.8-0.3,1.7-0.5,2.6-0.5c0.9,0,1.8,0.2,2.6,0.5c0.8,0.3,1.5,0.8,2,1.4c0.6,0.7,1,1.4,1.3,2.2
		C350.3,53.4,350.5,54.4,350.5,55.4z M347.3,55.4c0.1-1.1-0.2-2.2-0.9-3.2c-1.1-1.3-3-1.6-4.3-0.5c-0.2,0.1-0.4,0.3-0.5,0.5
		c-0.6,0.9-0.9,2.1-0.9,3.2c-0.1,1.1,0.2,2.3,0.9,3.2c1,1.3,2.9,1.6,4.2,0.6c0.2-0.2,0.4-0.4,0.6-0.6
		C347.1,57.7,347.4,56.5,347.3,55.4z"></path>
	<path class="st3" d="M353.7,49.1c0.8-0.2,1.6-0.4,2.4-0.5c1.1-0.2,2.1-0.2,3.2-0.2c0.9,0,1.9,0.1,2.8,0.5c0.7,0.3,1.3,0.7,1.8,1.3
		c0.5,0.6,0.8,1.3,0.9,2c0.2,0.8,0.3,1.7,0.3,2.5v7.6h-3.1v-7.1c0-0.6,0-1.2-0.1-1.8c-0.1-0.4-0.2-0.9-0.5-1.2
		c-0.2-0.3-0.5-0.6-0.9-0.7c-0.4-0.2-0.9-0.2-1.4-0.2c-0.4,0-0.8,0-1.2,0.1l-1,0.1v10.9h-3.1L353.7,49.1z"></path>
	<path class="st4" d="M497.7,30.4v-5.2h-5.6l-4.6,5.9c-1.8-0.4-3.5-1.3-4.9-2.6l-2.3,0.9c1.8,1.5,4,2.6,6.3,2.9l-8.8,11.4h-0.1
		l-14.3-18.2l16.2-20.6v20h4.8v-5.5c3.1,1,6.3,1.8,9.5,2.4c5.2,1.1,6.7,3.1,6.7,5C500.6,28.2,499.5,29.5,497.7,30.4 M499.5,31.7
		c3.4-1.1,5.9-3,6.2-5.6c0-3.8-4.4-5.3-8.7-6.2c-6.3-1.3-10.8-2.3-11.5-5c-0.1-0.3-0.2-0.6-0.1-0.9c0.1-2.9,4.3-4.8,8-4.8
		s6.3,0.5,8.7,2.8l2.1-0.7c-2.7-2.4-6.4-3.1-10.8-3.1c-3.1-0.1-6.2,0.5-9,1.7V2.2h-5.6l-14.2,18.4h-0.1L450,2.2h-5.4v22.6h2.6V5.1
		l15.9,20.1h-4.9v22.6h2.2V28l16.1,20.3h0.1l16.2-20.6v20h4.8v-15h8.4v21.1h4.9V32.8h10.1v-1.1L499.5,31.7z M495.8,6.8l7.7-4.6H501
		l-7.1,3.2l-7.2-3.2h-2.3l7.8,4.6L495.8,6.8z"></path>
	<polygon class="st5" points="404,60 405.1,60 408.1,66.5 411.2,60 412.2,60 412.2,67.1 411.5,67.1 411.5,60.6 408.5,67.1 
		407.7,67.1 404.6,60.6 404.7,67.1 404,67.1 	"></polygon>
	<rect x="414.9" y="60" class="st5" width="0.7" height="7.1"></rect>
	<polygon class="st5" points="418.4,60 419.3,60 424.2,66.4 424.2,60 424.9,60 424.9,67.1 424,67.1 419,60.7 419,67.1 418.4,67.1 	
		"></polygon>
	<rect x="427.7" y="60" class="st5" width="0.7" height="7.1"></rect>
	<path class="st5" d="M431.5,64.8L431.5,64.8c0,1.1,0.9,1.8,2.3,1.8s2.2-0.6,2.2-1.4s-0.6-1-1.8-1.2l-1.5-0.3
		c-1.1-0.2-1.7-0.8-1.7-1.8c0-1.2,1-2.1,2.7-2.1s2.8,0.8,2.8,2.2h-0.7c-0.1-1-0.8-1.5-2.1-1.5s-2,0.5-2,1.4s0.6,1,1.8,1.2l1.4,0.2
		c1.3,0.2,1.9,0.8,1.9,1.8c0,1.4-1,2.2-2.9,2.2s-3-0.9-3-2.4v-0.1L431.5,64.8z"></path>
	<polygon class="st5" points="441.1,60.7 438.4,60.7 438.4,60 444.6,60 444.6,60.7 441.8,60.7 441.8,67.1 441.1,67.1 	"></polygon>
	<path class="st5" d="M447.1,60.7v2.7h2.6c1.3,0,1.9-0.4,1.9-1.4s-0.6-1.4-2-1.4L447.1,60.7z M446.4,60h3.4c1.7,0,2.6,0.6,2.6,1.9
		c0.1,0.8-0.4,1.6-1.2,1.8c0.8,0.1,1,0.5,1.1,1.3c0,0.7,0.1,1.4,0.4,2.1h-0.8c-0.2-0.7-0.2-1.4-0.2-2.1c-0.1-0.7-0.5-1-1.4-1h-3v3.1
		h-0.7V60z"></path>
	<polygon class="st5" points="457.2,64.1 454.2,60 455.1,60 457.6,63.5 460.1,60 461,60 458,64.1 458,67.1 457.2,67.1 	"></polygon>
	<path class="st5" d="M473.6,63.6c0-1.7-1.4-3-3.1-2.9c-1.7,0-3,1.4-2.9,3.1c0,1.6,1.4,2.9,3,2.9c1.5,0.1,2.9-1,3-2.6
		C473.6,63.9,473.6,63.7,473.6,63.6 M470.6,67.3c-2.1,0-3.8-1.7-3.8-3.8c0-2.1,1.7-3.8,3.8-3.8c2.1,0,3.8,1.7,3.8,3.8c0,0,0,0,0,0
		c0.2,1.9-1.2,3.6-3.1,3.8C471,67.3,470.8,67.3,470.6,67.3"></path>
	<polygon class="st5" points="476.6,60 481.9,60 481.9,60.7 477.3,60.7 477.3,63.1 481.4,63.1 481.4,63.8 477.3,63.8 477.3,67.1 
		476.6,67.1 	"></polygon>
	<polygon class="st5" points="488.2,60 493.7,60 493.7,60.7 489,60.7 489,63.2 493.4,63.2 493.4,63.8 489,63.8 489,66.5 493.7,66.5 
		493.7,67.1 488.2,67.1 	"></polygon>
	<path class="st5" d="M496.7,60.6v5.8h1.9c0.8,0.1,1.7-0.1,2.4-0.4c0.7-0.6,1.1-1.5,1-2.5c0.1-0.9-0.3-1.9-1-2.4
		c-0.8-0.4-1.6-0.5-2.5-0.5H496.7z M501.5,60.6c0.8,0.7,1.3,1.8,1.1,2.9c0.1,1.1-0.3,2.2-1.1,2.9c-0.9,0.5-1.9,0.8-2.9,0.6H496V60
		h2.6C499.6,59.9,500.6,60.1,501.5,60.6"></path>
	<path class="st5" d="M505.7,60v4.4c0,1.5,0.7,2.2,2.4,2.2s2.4-0.7,2.4-2.2V60h0.7v4.6c0,1.8-1.1,2.8-3.1,2.8s-3.1-1-3.1-2.8V60
		H505.7z"></path>
	<path class="st5" d="M517.3,60.5c-1.5-0.1-2.9,1-3,2.6c0,0.2,0,0.3,0,0.5c-0.2,1.5,1,2.9,2.5,3c0.1,0,0.3,0,0.4,0
		c1.4,0.1,2.6-0.8,2.8-2.2h0.8c-0.4,2-2.4,3.2-4.3,2.7c-1.7-0.4-2.9-1.9-2.8-3.6c-0.2-1.9,1.2-3.6,3.1-3.8c0.2,0,0.4,0,0.6,0
		c1.9,0,3.1,1,3.3,2.5h-0.7C519.6,61.2,518.5,60.4,517.3,60.5"></path>
	<path class="st5" d="M527.4,64.2l-1.6-3.7l-1.6,3.7H527.4z M525.4,60h0.8l3.2,7.1h-0.7l-1-2.2h-3.9l-1,2.2h-0.7L525.4,60z"></path>
	<polygon class="st5" points="532.5,60.7 529.8,60.7 529.8,60 536,60 536,60.7 533.2,60.7 533.2,67.1 532.5,67.1 	"></polygon>
	<rect x="537.9" y="60" class="st5" width="0.7" height="7.1"></rect>
	<path class="st5" d="M547.8,63.6c0-1.7-1.4-3-3.1-2.9c-1.7,0-3,1.4-2.9,3.1c0,1.6,1.4,2.9,3,2.9c1.5,0.1,2.9-1,3-2.6
		C547.8,63.9,547.8,63.7,547.8,63.6 M544.8,67.3c-2.1,0-3.8-1.7-3.8-3.8c0-2.1,1.7-3.8,3.8-3.8c2.1,0,3.8,1.7,3.8,3.8c0,0,0,0,0,0
		c0.2,1.9-1.2,3.6-3.1,3.8C545.2,67.3,545,67.3,544.8,67.3"></path>
	<polygon class="st5" points="550.8,60 551.7,60 556.7,66.4 556.7,60 557.4,60 557.4,67.1 556.4,67.1 551.5,60.7 551.5,67.1 
		550.8,67.1 	"></polygon>
	<path class="st5" d="M560.4,66.3h0.8v1.2c0,0.7-0.2,1-0.8,1.2v-0.4c0.2-0.1,0.4-0.4,0.3-0.7v-0.4h-0.3V66.3z"></path>
	<polygon class="st5" points="434.6,74.4 432.1,71.1 432.8,71.1 434.9,74 437,71.1 437.8,71.1 435.2,74.4 435.2,77 434.6,77 	"></polygon>
	<path class="st5" d="M444.2,74c0-1.4-1.2-2.5-2.5-2.5s-2.5,1.2-2.5,2.5c0,1.4,1.1,2.5,2.5,2.5c1.3,0.1,2.4-0.8,2.5-2.1
		C444.3,74.3,444.3,74.1,444.2,74 M441.7,77.1c-1.7,0-3.1-1.4-3.1-3.1c0-1.7,1.4-3.1,3.1-3.1s3.1,1.4,3.1,3.1c0,0,0,0,0,0
		c0.1,1.6-1,3-2.6,3.1C442.1,77.1,441.9,77.1,441.7,77.1"></path>
	<path class="st5" d="M447.2,71.1v3.6c0,1.3,0.6,1.9,2,1.9s2-0.6,2-1.9v-3.6h0.6v3.8c0,1.5-0.9,2.3-2.6,2.3s-2.6-0.8-2.6-2.3v-3.8
		H447.2z"></path>
	<polygon class="st5" points="455.4,71.6 453.2,71.6 453.2,71.1 458.3,71.1 458.3,71.6 456,71.6 456,77 455.4,77 	"></polygon>
	<polygon class="st5" points="459.7,71.1 460.3,71.1 460.3,73.5 464.1,73.5 464.1,71.1 464.7,71.1 464.7,77 464.1,77 464.1,74.1 
		460.3,74.1 460.3,77 459.7,77 	"></polygon>
	<path class="st5" d="M473.9,74.6l-1.4-3l-1.4,3H473.9z M472.2,71.1h0.7l2.7,5.9H475l-0.8-1.8h-3.3l-0.8,1.8h-0.6L472.2,71.1z"></path>
	<polygon class="st5" points="477,71.1 477.7,71.1 481.9,76.4 481.9,71.1 482.5,71.1 482.5,77 481.7,77 477.6,71.7 477.6,77 477,77 
			"></polygon>
	<path class="st5" d="M485.1,71.6v4.8h1.6c0.7,0.1,1.3-0.1,1.9-0.4c0.6-0.5,0.9-1.3,0.8-2.1c0.1-0.8-0.2-1.5-0.8-2
		c-0.6-0.3-1.4-0.4-2.1-0.4L485.1,71.6z M489.1,71.6c1.3,1.4,1.3,3.5,0,4.8c-0.7,0.4-1.6,0.6-2.4,0.5h-2.2v-5.9h2.2
		C487.5,71,488.4,71.2,489.1,71.6"></path>
	<path class="st5" d="M495.5,75L495.5,75c0,0.9,0.7,1.5,1.9,1.5s1.8-0.5,1.8-1.2s-0.5-0.8-1.5-1l-1.3-0.2c-0.9-0.2-1.4-0.7-1.4-1.5
		c0-1,0.8-1.7,2.2-1.7s2.3,0.7,2.3,1.8h-0.6c-0.1-0.8-0.7-1.3-1.7-1.3s-1.7,0.5-1.7,1.1s0.5,0.8,1.5,1l1.1,0.2
		c1.1,0.2,1.6,0.7,1.6,1.5c0,1.1-0.9,1.8-2.4,1.8s-2.5-0.8-2.5-2V75H495.5z"></path>
	<path class="st5" d="M504,74c1.1,0,1.7-0.2,1.7-1.2s-0.5-1.2-1.7-1.2h-1.7V74H504z M501.7,71.1h2.4c1.5,0,2.2,0.6,2.2,1.8
		s-0.7,1.8-2.2,1.8h-1.8V77h-0.6V71.1z"></path>
	<path class="st5" d="M513.3,74c0-1.4-1.2-2.5-2.5-2.5s-2.5,1.2-2.5,2.5c0,1.4,1.1,2.5,2.5,2.5c1.3,0.1,2.4-0.8,2.5-2.1
		C513.3,74.3,513.3,74.1,513.3,74 M510.8,77.1c-1.7,0-3.1-1.4-3.1-3.1s1.4-3.1,3.1-3.1c1.7,0,3.1,1.4,3.1,3.1l0,0
		c0.1,1.6-1,3-2.6,3.1C511.1,77.1,510.9,77.1,510.8,77.1"></path>
	<path class="st5" d="M516.2,71.6v2.3h2.2c1.1,0,1.6-0.3,1.6-1.1s-0.5-1.1-1.7-1.1H516.2z M515.6,71.1h2.8c1.4,0,2.1,0.5,2.1,1.6
		c0.1,0.7-0.3,1.3-1,1.5c0.7,0.1,0.8,0.4,0.9,1.1c0,0.6,0.1,1.2,0.3,1.7h-0.7c-0.1-0.6-0.2-1.1-0.2-1.7c-0.1-0.6-0.4-0.8-1.2-0.8
		h-2.5V77h-0.6L515.6,71.1z"></path>
	<polygon class="st5" points="524.1,71.6 521.8,71.6 521.8,71.1 527,71.1 527,71.6 524.7,71.6 524.7,77 524.1,77 	"></polygon>
	<path class="st5" d="M528.7,75L528.7,75c0,0.9,0.7,1.5,1.9,1.5s1.8-0.5,1.8-1.2s-0.5-0.8-1.5-1l-1.3-0.2c-0.9-0.2-1.4-0.7-1.4-1.5
		c0-1,0.8-1.7,2.3-1.7s2.3,0.7,2.3,1.8h-0.6c-0.1-0.8-0.7-1.3-1.7-1.3s-1.7,0.5-1.7,1.1s0.5,0.8,1.5,1l1.1,0.2
		c1.1,0.2,1.5,0.7,1.5,1.5c0,1.1-0.9,1.8-2.4,1.8s-2.5-0.8-2.5-2V75H528.7z"></path>
	<polygon class="st5" points="404,60 405.1,60 408.1,66.5 411.2,60 412.2,60 412.2,67.1 411.5,67.1 411.5,60.6 408.5,67.1 
		407.7,67.1 404.6,60.6 404.7,67.1 404,67.1 	"></polygon>
	<rect x="414.9" y="60" class="st5" width="0.7" height="7.1"></rect>
	<polygon class="st5" points="418.4,60 419.3,60 424.2,66.4 424.2,60 424.9,60 424.9,67.1 424,67.1 419,60.7 419,67.1 418.4,67.1 	
		"></polygon>
	<rect x="427.7" y="60" class="st5" width="0.7" height="7.1"></rect>
	<path class="st5" d="M431.5,64.8L431.5,64.8c0,1.1,0.9,1.8,2.3,1.8s2.2-0.6,2.2-1.4s-0.6-1-1.8-1.2l-1.5-0.3
		c-1.1-0.2-1.7-0.8-1.7-1.8c0-1.2,1-2.1,2.7-2.1s2.8,0.8,2.8,2.2h-0.7c-0.1-1-0.8-1.5-2.1-1.5s-2,0.5-2,1.4s0.6,1,1.8,1.2l1.4,0.2
		c1.3,0.2,1.9,0.8,1.9,1.8c0,1.4-1,2.2-2.9,2.2s-3-0.9-3-2.4v-0.1L431.5,64.8z"></path>
	<polygon class="st5" points="441.1,60.7 438.4,60.7 438.4,60 444.6,60 444.6,60.7 441.8,60.7 441.8,67.1 441.1,67.1 	"></polygon>
	<path class="st5" d="M447.1,60.7v2.7h2.6c1.3,0,1.9-0.4,1.9-1.4s-0.6-1.4-2-1.4L447.1,60.7z M446.4,60h3.4c1.7,0,2.6,0.6,2.6,1.9
		c0.1,0.8-0.4,1.6-1.2,1.8c0.8,0.1,1,0.5,1.1,1.3c0,0.7,0.1,1.4,0.4,2.1h-0.8c-0.2-0.7-0.2-1.4-0.2-2.1c-0.1-0.7-0.5-1-1.4-1h-3v3.1
		h-0.7V60z"></path>
	<polygon class="st5" points="457.2,64.1 454.2,60 455.1,60 457.6,63.5 460.1,60 461,60 458,64.1 458,67.1 457.2,67.1 	"></polygon>
	<path class="st5" d="M473.6,63.6c0-1.7-1.4-3-3.1-2.9c-1.7,0-3,1.4-2.9,3.1c0,1.6,1.4,2.9,3,2.9c1.5,0.1,2.9-1,3-2.6
		C473.6,63.9,473.6,63.7,473.6,63.6 M470.6,67.3c-2.1,0-3.8-1.7-3.8-3.8c0-2.1,1.7-3.8,3.8-3.8c2.1,0,3.8,1.7,3.8,3.8c0,0,0,0,0,0
		c0.2,1.9-1.2,3.6-3.1,3.8C471,67.3,470.8,67.3,470.6,67.3"></path>
	<polygon class="st5" points="476.6,60 481.9,60 481.9,60.7 477.3,60.7 477.3,63.1 481.4,63.1 481.4,63.8 477.3,63.8 477.3,67.1 
		476.6,67.1 	"></polygon>
	<polygon class="st5" points="488.2,60 493.7,60 493.7,60.7 489,60.7 489,63.2 493.4,63.2 493.4,63.8 489,63.8 489,66.5 493.7,66.5 
		493.7,67.1 488.2,67.1 	"></polygon>
	<path class="st5" d="M496.7,60.6v5.8h1.9c0.8,0.1,1.7-0.1,2.4-0.4c0.7-0.6,1.1-1.5,1-2.5c0.1-0.9-0.3-1.9-1-2.4
		c-0.8-0.4-1.6-0.5-2.5-0.5H496.7z M501.5,60.6c0.8,0.7,1.3,1.8,1.1,2.9c0.1,1.1-0.3,2.2-1.1,2.9c-0.9,0.5-1.9,0.8-2.9,0.6H496V60
		h2.6C499.6,59.9,500.6,60.1,501.5,60.6"></path>
	<path class="st5" d="M505.7,60v4.4c0,1.5,0.7,2.2,2.4,2.2s2.4-0.7,2.4-2.2V60h0.7v4.6c0,1.8-1.1,2.8-3.1,2.8s-3.1-1-3.1-2.8V60
		H505.7z"></path>
	<path class="st5" d="M517.3,60.5c-1.5-0.1-2.9,1-3,2.6c0,0.2,0,0.3,0,0.5c-0.2,1.5,1,2.9,2.5,3c0.1,0,0.3,0,0.4,0
		c1.4,0.1,2.6-0.8,2.8-2.2h0.8c-0.4,2-2.4,3.2-4.3,2.7c-1.7-0.4-2.9-1.9-2.8-3.6c-0.2-1.9,1.2-3.6,3.1-3.8c0.2,0,0.4,0,0.6,0
		c1.9,0,3.1,1,3.3,2.5h-0.7C519.6,61.2,518.5,60.4,517.3,60.5"></path>
	<path class="st5" d="M527.4,64.2l-1.6-3.7l-1.6,3.7H527.4z M525.4,60h0.8l3.2,7.1h-0.7l-1-2.2h-3.9l-1,2.2h-0.7L525.4,60z"></path>
	<polygon class="st5" points="532.5,60.7 529.8,60.7 529.8,60 536,60 536,60.7 533.2,60.7 533.2,67.1 532.5,67.1 	"></polygon>
	<rect x="537.9" y="60" class="st5" width="0.7" height="7.1"></rect>
	<path class="st5" d="M547.8,63.6c0-1.7-1.4-3-3.1-2.9c-1.7,0-3,1.4-2.9,3.1c0,1.6,1.4,2.9,3,2.9c1.5,0.1,2.9-1,3-2.6
		C547.8,63.9,547.8,63.7,547.8,63.6 M544.8,67.3c-2.1,0-3.8-1.7-3.8-3.8c0-2.1,1.7-3.8,3.8-3.8c2.1,0,3.8,1.7,3.8,3.8c0,0,0,0,0,0
		c0.2,1.9-1.2,3.6-3.1,3.8C545.2,67.3,545,67.3,544.8,67.3"></path>
	<polygon class="st5" points="550.8,60 551.7,60 556.7,66.4 556.7,60 557.4,60 557.4,67.1 556.4,67.1 551.5,60.7 551.5,67.1 
		550.8,67.1 	"></polygon>
	<path class="st5" d="M560.4,66.3h0.8v1.2c0,0.7-0.2,1-0.8,1.2v-0.4c0.2-0.1,0.4-0.4,0.3-0.7v-0.4h-0.3V66.3z"></path>
	<polygon class="st5" points="434.6,74.4 432.1,71.1 432.8,71.1 434.9,74 437,71.1 437.8,71.1 435.2,74.4 435.2,77 434.6,77 	"></polygon>
	<path class="st5" d="M444.2,74c0-1.4-1.2-2.5-2.5-2.5s-2.5,1.2-2.5,2.5c0,1.4,1.1,2.5,2.5,2.5c1.3,0.1,2.4-0.8,2.5-2.1
		C444.3,74.3,444.3,74.1,444.2,74 M441.7,77.1c-1.7,0-3.1-1.4-3.1-3.1c0-1.7,1.4-3.1,3.1-3.1s3.1,1.4,3.1,3.1c0,0,0,0,0,0
		c0.1,1.6-1,3-2.6,3.1C442.1,77.1,441.9,77.1,441.7,77.1"></path>
	<path class="st5" d="M447.2,71.1v3.6c0,1.3,0.6,1.9,2,1.9s2-0.6,2-1.9v-3.6h0.6v3.8c0,1.5-0.9,2.3-2.6,2.3s-2.6-0.8-2.6-2.3v-3.8
		H447.2z"></path>
	<polygon class="st5" points="455.4,71.6 453.2,71.6 453.2,71.1 458.3,71.1 458.3,71.6 456,71.6 456,77 455.4,77 	"></polygon>
	<polygon class="st5" points="459.7,71.1 460.3,71.1 460.3,73.5 464.1,73.5 464.1,71.1 464.7,71.1 464.7,77 464.1,77 464.1,74.1 
		460.3,74.1 460.3,77 459.7,77 	"></polygon>
	<path class="st5" d="M473.9,74.6l-1.4-3l-1.4,3H473.9z M472.2,71.1h0.7l2.7,5.9H475l-0.8-1.8h-3.3l-0.8,1.8h-0.6L472.2,71.1z"></path>
	<polygon class="st5" points="477,71.1 477.7,71.1 481.9,76.4 481.9,71.1 482.5,71.1 482.5,77 481.7,77 477.6,71.7 477.6,77 477,77 
			"></polygon>
	<path class="st5" d="M485.1,71.6v4.8h1.6c0.7,0.1,1.3-0.1,1.9-0.4c0.6-0.5,0.9-1.3,0.8-2.1c0.1-0.8-0.2-1.5-0.8-2
		c-0.6-0.3-1.4-0.4-2.1-0.4L485.1,71.6z M489.1,71.6c1.3,1.4,1.3,3.5,0,4.8c-0.7,0.4-1.6,0.6-2.4,0.5h-2.2v-5.9h2.2
		C487.5,71,488.4,71.2,489.1,71.6"></path>
	<path class="st5" d="M495.5,75L495.5,75c0,0.9,0.7,1.5,1.9,1.5s1.8-0.5,1.8-1.2s-0.5-0.8-1.5-1l-1.3-0.2c-0.9-0.2-1.4-0.7-1.4-1.5
		c0-1,0.8-1.7,2.2-1.7s2.3,0.7,2.3,1.8h-0.6c-0.1-0.8-0.7-1.3-1.7-1.3s-1.7,0.5-1.7,1.1s0.5,0.8,1.5,1l1.1,0.2
		c1.1,0.2,1.6,0.7,1.6,1.5c0,1.1-0.9,1.8-2.4,1.8s-2.5-0.8-2.5-2V75H495.5z"></path>
	<path class="st5" d="M504,74c1.1,0,1.7-0.2,1.7-1.2s-0.5-1.2-1.7-1.2h-1.7V74H504z M501.7,71.1h2.4c1.5,0,2.2,0.6,2.2,1.8
		s-0.7,1.8-2.2,1.8h-1.8V77h-0.6V71.1z"></path>
	<path class="st5" d="M513.3,74c0-1.4-1.2-2.5-2.5-2.5s-2.5,1.2-2.5,2.5c0,1.4,1.1,2.5,2.5,2.5c1.3,0.1,2.4-0.8,2.5-2.1
		C513.3,74.3,513.3,74.1,513.3,74 M510.8,77.1c-1.7,0-3.1-1.4-3.1-3.1s1.4-3.1,3.1-3.1c1.7,0,3.1,1.4,3.1,3.1l0,0
		c0.1,1.6-1,3-2.6,3.1C511.1,77.1,510.9,77.1,510.8,77.1"></path>
	<path class="st5" d="M516.2,71.6v2.3h2.2c1.1,0,1.6-0.3,1.6-1.1s-0.5-1.1-1.7-1.1H516.2z M515.6,71.1h2.8c1.4,0,2.1,0.5,2.1,1.6
		c0.1,0.7-0.3,1.3-1,1.5c0.7,0.1,0.8,0.4,0.9,1.1c0,0.6,0.1,1.2,0.3,1.7h-0.7c-0.1-0.6-0.2-1.1-0.2-1.7c-0.1-0.6-0.4-0.8-1.2-0.8
		h-2.5V77h-0.6L515.6,71.1z"></path>
	<polygon class="st5" points="524.1,71.6 521.8,71.6 521.8,71.1 527,71.1 527,71.6 524.7,71.6 524.7,77 524.1,77 	"></polygon>
	<path class="st5" d="M528.7,75L528.7,75c0,0.9,0.7,1.5,1.9,1.5s1.8-0.5,1.8-1.2s-0.5-0.8-1.5-1l-1.3-0.2c-0.9-0.2-1.4-0.7-1.4-1.5
		c0-1,0.8-1.7,2.3-1.7s2.3,0.7,2.3,1.8h-0.6c-0.1-0.8-0.7-1.3-1.7-1.3s-1.7,0.5-1.7,1.1s0.5,0.8,1.5,1l1.1,0.2
		c1.1,0.2,1.5,0.7,1.5,1.5c0,1.1-0.9,1.8-2.4,1.8s-2.5-0.8-2.5-2V75H528.7z"></path>
</g>
</svg>
